<?xml version="1.0" encoding="utf-8" ?>
<svg baseProfile="full" height="200mm" version="1.1" viewBox="0,0,200,200" width="200mm" xmlns="http://www.w3.org/2000/svg" xmlns:ev="http://www.w3.org/2001/xml-events" xmlns:xlink="http://www.w3.org/1999/xlink"><defs /><rect fill="#1a1a1a" height="200" width="200" x="0" y="0" /><text alignment-baseline="middle" fill="#e1ed5e" style="dominant-baseline: central; font-size:9.0px; font-family:Arial;" text-anchor="middle" x="100.0" y="100.0">2021</text><line stroke="#e1ed5e" stroke-width="0.3" x1="100.0" x2="100.0" y1="15.0" y2="10.0" /><path d="M 100.0 14.0 a86.0,86.0 0 0,1 42.46469731375804,11.215312516191453" fill="none" id="id13" stroke="none" /><text fill="#e1ed5e" style="font-size:6.75px; font-family:Arial;" text-anchor="middle"><textPath startOffset="22.20632615414155" xlink:href="#id13">January</textPath></text><line stroke="#e1ed5e" stroke-width="0.3" x1="143.23703022742887" x2="145.7803849466894" y1="26.81831364943548" y2="22.513508569990506" /><path d="M 143.74570117128098 25.957352633546492 a86.0,86.0 0 0,1 28.547481713284135,27.462654790039103" fill="none" id="id14" stroke="none" /><text fill="#e1ed5e" style="font-size:6.75px; font-family:Arial;" text-anchor="middle"><textPath startOffset="19.985693538727396" xlink:href="#id14">February</textPath></text><path d="M 111.2981086023043 82.29822771554956 l 4.886164913488637 -7.655598090569478 a30.08200361628085,30.08200361628085 0 0,0 0.4340875726766489,0.2823426322002821 l -5.017219511949565 7.570356534209667" fill="#ff0000" stroke="none" /><path d="M 116.15771136456269 86.58626213691792 l 11.13591139488861 -9.244762017791325 a35.47322173396121,35.47322173396121 0 0,0 0.3859849836722878,0.4731719506040242 l -11.293394870637307 9.0517058975792" fill="#ff5808" stroke="none" /><path d="M 116.38621287248628 86.86637796730983 l 11.34915971745076 -9.096401668741096 a35.54468802041772,35.54468802041772 0 0,0 0.3785440205870016,0.4807124643983311 l -11.504057818631725 8.899696810389726" fill="#ff5908" stroke="none" /><path d="M 116.60985879189232 87.15038557335679 l 11.268488494740764 -8.717457152565457 a35.2468555184265,35.2468555184265 0 0,0 0.3671112063487787,0.4830753152630834 l -11.416875641313656 8.52219706142134" fill="#ff5507" stroke="none" /><path d="M 116.82858285166822 87.43820079747576 l 11.86178560477918 -8.854302840827614 a35.802048389693724,35.802048389693724 0 0,0 0.36439220426066027,0.4970305570993449 l -12.012440421553467 8.648809840056774" fill="#ff5d08" stroke="none" /><path d="M 117.04232023915458 87.72973835380427 l 11.29896205154523 -8.13511416035767 a34.92288137722616,34.92288137722616 0 0,0 0.34704593445300447,0.49087186260064253 l -11.437320605802118 7.939415797425234" fill="#ff4f07" stroke="none" /><line stroke="#e1ed5e" stroke-width="0.3" x1="172.23445277983987" x2="176.4835382374775" y1="55.19839476539836" y2="52.563006222186495" /><path d="M 173.08426987136738 54.67131705675599 a86.0,86.0 0 0,1 12.851231095245387,41.99856678651699" fill="none" id="id15" stroke="none" /><text fill="#e1ed5e" style="font-size:6.75px; font-family:Arial;" text-anchor="middle"><textPath startOffset="22.20632615414155" xlink:href="#id15">March</textPath></text><path d="M 118.89224826269711 90.83032412892265 l 12.116642923970376 -5.881019914277233 a34.46846060168447,34.46846060168447 0 0,0 0.25447868510378224,0.5359970109845374 l -12.216079802915916 5.671580487652155" fill="#ff4806" stroke="none" /><path d="M 119.04729006885535 91.15688171328212 l 13.307940195740944 -6.178500399693702 a35.672257476013456,35.672257476013456 0 0,0 0.25377869598111114,0.5591677169534675 l -13.412321208685404 5.948510673898172" fill="#ff5b08" stroke="none" /><path d="M 119.196687751892 91.48605970444005 l 31.396425480285448 -13.924656976660033 a55.3457654574296,55.3457654574296 0 0,0 0.3787476508143185,0.8742017974161262 l -31.63146384094245 13.382156034657305" fill="#8cff24" stroke="none" /><path d="M 119.34039704204932 91.81776055985345 l 17.16704828442902 -7.262772281166749 a39.64015579355498,39.64015579355498 0 0,0 0.26045151561728785,0.6307040038961688 l -17.289521486932504 6.966193706817277" fill="#ff990e" stroke="none" /><path d="M 119.97218684219823 93.5106431181261 l 17.780624523147086 -5.777275118892317 a39.695655009453716,39.695655009453716 0 0,0 0.20555641907177272,0.65167002181445 l -17.877436425987067 5.470354930651448" fill="#ff9a0e" stroke="none" /><path d="M 120.08093135843002 93.85539295169968 l 17.88286772989403 -5.472016866926838 a39.70133489451534,39.70133489451534 0 0,0 0.19433633828331306,0.6552055229225511 l -17.974409965289045 5.163381957257757" fill="#ff9a0e" stroke="none" /><path d="M 120.67395015179393 96.31383870115 l 40.52956860502828 -7.2264142147008705 a62.168762353417,62.168762353417 0 0,0 0.1787740871483091,1.0551347821701493 l -40.64795455369681 6.527693644214883" fill="#3bff2e" stroke="none" /><path d="M 120.78858239683441 97.02765380044208 l 48.910854964920226 -6.993261546022814 a70.40827299603319,70.40827299603319 0 0,0 0.16121483167035175,1.2012377514944044 l -49.023985795648414 6.150305452463745" fill="#3aff8f" stroke="none" /><path d="M 120.94382443527127 98.46500227214037 l 48.1597210685832 -3.5296830644804555 a69.28889516171826,69.28889516171826 0 0,0 0.07694171833944206,1.1902543275005515 l -48.21334337792706 2.7001696727268687" fill="#38ff81" stroke="none" /><line stroke="#e1ed5e" stroke-width="0.3" x1="184.98032266829074" x2="189.97916517819016" y1="98.17113171792111" y2="98.06355123074" /><path d="M 185.9800911702706 98.14961562048488 a86.0,86.0 0 0,1 -9.607161424134198,41.387399972396054" fill="none" id="id16" stroke="none" /><text fill="#e1ed5e" style="font-size:6.75px; font-family:Arial;" text-anchor="middle"><textPath startOffset="21.466115282336823" xlink:href="#id16">April</textPath></text><path d="M 120.99513854157772 99.54816195383933 l 38.218714050787725 -0.8225079843737717 a59.2275636560877,59.2275636560877 0 0,0 0.013162600858000495,1.0194579421472192 l -38.22720965876344 0.16451378416608978" fill="#5dff2a" stroke="none" /><path d="M 120.95626037817324 101.35467743843564 l 39.99538596865805 2.585425359082574 a61.07886379464014,61.07886379464014 0 0,0 -0.07685303687269444,1.0485986281058375 l -39.944956373121016 -3.273497123685182" fill="#48ff2c" stroke="none" /><path d="M 120.89721153311464 102.0752229133903 l 38.08145227785211 3.7817247634665248 a59.26876598189369,59.26876598189369 0 0,0 -0.10955605182332676,1.0143529757734353 l -38.01071392452773 -4.4366740611247515" fill="#5dff2a" stroke="none" /><path d="M 118.97047184881838 109.00673069616215 l 37.64354508700936 17.872263576229894 a62.67078463451271,62.67078463451271 0 0,0 -0.4710656790456397,0.9705348238792977 l -37.330326151349006 -18.51758735607447" fill="#36ff2f" stroke="none" /><line stroke="#e1ed5e" stroke-width="0.3" x1="174.80103733775053" x2="179.2010983576182" y1="140.37084112569926" y2="142.7455964860345" /><path d="M 175.68104954172406 140.8457921977663 a86.0,86.0 0 0,1 -30.038265399797805,32.042727171017184" fill="none" id="id17" stroke="none" /><text fill="#e1ed5e" style="font-size:6.75px; font-family:Arial;" text-anchor="middle"><textPath startOffset="22.206326154141568" xlink:href="#id17">May</textPath></text><path d="M 118.48025628344425 109.97397251340804 l 42.69708552957998 23.044028770108262 a69.5187425092391,69.5187425092391 0 0,0 -0.5774146989941646,1.0481754001112786 l -42.29409442113431 -23.775574688617347" fill="#38ff84" stroke="none" /><path d="M 118.30583269289576 110.29060199501025 l 41.18711277647626 23.1532862785753 a68.24884045518829,68.24884045518829 0 0,0 -0.5844960819419208,1.0191181861871048 l -40.782464698381965 -23.85882431062072" fill="#37ff73" stroke="none" /><path d="M 117.94076556474637 110.91462005526583 l 33.9843404392978 20.675046579540158 a60.779302987360744,60.779302987360744 0 0,0 -0.551457447401278,0.8891249930847053 l -33.62341835222856 -21.256967903990137" fill="#4bff2c" stroke="none" /><path d="M 117.75023020441432 111.22182372390056 l 53.25069061324299 33.665471171701654 a84.0,84.0 0 0,0 -0.7831805464917987,1.2155136003141882 l -52.663305203374144 -34.5771063719373" fill="#4dd2ff" stroke="none" /><path d="M 117.55443506779139 111.5257021239791 l 39.71662700841657 26.076715684692555 a68.512162251638,68.512162251638 0 0,0 -0.6557491359131457,0.980255984979028 l -39.261874767092706 -26.75650858387739" fill="#37ff77" stroke="none" /><path d="M 116.93607887273984 112.41649034213515 l 30.51293764469289 22.3702073202621 a58.83471341586222,58.83471341586222 0 0,0 -0.6058259001620628,0.8116027959207524 l -30.123350477835736 -22.892122995692166" fill="#62ff29" stroke="none" /><path d="M 116.71984013943494 112.70617746262583 l 31.90636905181419 24.247121023854767 a61.07417203157198,61.07417203157198 0 0,0 -0.6432947855921254,0.8315452273875877 l -31.484267449003994 -24.792744245355607" fill="#48ff2c" stroke="none" /><path d="M 115.56566222782051 114.09645910891815 l 27.965961602421693 25.326325883232983 a58.72953473198207,58.72953473198207 0 0,0 -0.685048118539953,0.743484434028517 l -27.52586707588602 -25.803961572062835" fill="#63ff29" stroke="none" /><path d="M 115.32070863581623 114.36230785411682 l 27.18443466647627 25.483887775746926 a58.26153545283367,58.26153545283367 0 0,0 -0.6921843524801998,0.7257525262589165 l -26.741743762617105 -25.94804741858835" fill="#69ff28" stroke="none" /><path d="M 114.55890576462653 115.13401014063108 l 25.79017961641601 26.808940599908414 a58.20017017079919,58.20017017079919 0 0,0 -0.7279571017250465,0.688328876472368 l -25.324886680300157 -27.248904113126706" fill="#69ff28" stroke="none" /><path d="M 114.29624159901734 115.38237550388516 l 25.531248310980864 27.470943735970156 a58.50329838909907,58.50329838909907 0 0,0 -0.7435503189392874,0.6792155869431363 l -25.05459844257471 -27.906352089499876" fill="#66ff29" stroke="none" /><path d="M 114.0293411484842 115.62618273729858 l 23.243224987241636 25.888805269663308 a55.791920701480116,55.791920701480116 0 0,0 -0.7201346072459733,0.6354350622795054 l -22.794148027089076 -26.285063473715105" fill="#87ff25" stroke="none" /><path d="M 113.75828350139079 115.86535959552629 l 23.605672900557366 27.220873085211107 a57.030594286096346,57.030594286096346 0 0,0 -0.7471945418777567,0.6367753986276269 l -23.13361288210256 -27.62317287406168" fill="#78ff26" stroke="none" /><path d="M 113.20401910651253 116.32954008644616 l 16.238698886670015 20.082558369732926 a46.826430109592536,46.826430109592536 0 0,0 -0.6311366754911807,0.5014131457074568 l -15.890604718461484 -20.359105429445506" fill="#fdff18" stroke="none" /><path d="M 112.92097659922987 116.55440617244103 l 21.773231993032706 27.895950691601318 a56.38725330413022,56.38725330413022 0 0,0 -0.7702801453388229,0.5906179690153908 l -21.28982311920039 -28.26660800244408" fill="#7fff26" stroke="none" /><line stroke="#e1ed5e" stroke-width="0.3" x1="143.8653032363475" x2="146.44561519142675" y1="172.8068346515853" y2="177.08958963109032" /><path d="M 144.38136562736335 173.6633856474863 a86.0,86.0 0 0,1 -40.68145358897372,12.25698825130547" fill="none" id="id18" stroke="none" /><text fill="#e1ed5e" style="font-size:6.75px; font-family:Arial;" text-anchor="middle"><textPath startOffset="21.466115282336833" xlink:href="#id18">June</textPath></text><path d="M 110.8373102113329 117.98757091392108 l 23.434402507162584 38.895996211509384 a66.41001808140425,66.41001808140425 0 0,0 -0.9842348244056706,0.5815032828003106 l -22.761399811728534 -39.29361806660345" fill="#34ff5b" stroke="none" /><path d="M 109.57404056367764 118.69057910512821 l 20.839308769568554 40.68279703467191 a66.70959160348872,66.70959160348872 0 0,0 -1.0265211355593482,0.5147190075986652 l -20.135933726326446 -41.03548388317988" fill="#34ff5f" stroke="none" /><path d="M 106.2309692047433 120.05430185196036 l 9.272593893609614 29.84373550611253 a52.2510727251819,52.2510727251819 0 0,0 -0.8612097086918171,0.2594754206178802 l -8.75750921047755 -29.998926295836135" fill="#b4ff20" stroke="none" /><path d="M 103.41894727170886 120.7198165907248 l 1.6258069348159663 9.85286371043626 a30.986098912274375,30.986098912274375 0 0,0 -0.5270058694354068,0.08230747838269854 l -1.4559652017720424 -9.879389496166064" fill="#ff0f01" stroke="none" /><line stroke="#e1ed5e" stroke-width="0.3" x1="102.19456741930631" x2="102.32365962044197" y1="184.97166512339345" y2="189.96999836594603" /><path d="M 102.22038585953345 185.97133177190398 a86.0,86.0 0 0,1 -42.740103519485714,-10.115201625700543" fill="none" id="id19" stroke="none" /><text fill="#e1ed5e" style="font-size:6.75px; font-family:Arial;" text-anchor="middle"><textPath startOffset="22.20632615414155" xlink:href="#id19">July</textPath></text><path d="M 97.2962882734958 120.8252237178851 l -1.3489677719260291 10.390366459259786 a31.477567905167966,31.477567905167966 0 0,0 -0.5367246231340802,-0.07438514212047594 l 1.5276209862469403 -10.365606751646705" fill="#ff1702" stroke="none" /><path d="M 95.86986931433489 120.58985236759428 l -2.3619522374839974 11.774990083945232 a33.009546612972706,33.009546612972706 0 0,0 -0.556145687905448,-0.11654573620382788 l 2.5642893868188326 -11.732588367014863" fill="#ff3004" stroke="none" /><path d="M 93.08242187328487 119.8279376855182 l -3.181330399191996 9.118685724504761 a30.65770637631472,30.65770637631472 0 0,0 -0.4967722759912954,-0.1781248638594821 l 3.3378222358130176 -9.06257331960532" fill="#ff0a01" stroke="none" /><line stroke="#e1ed5e" stroke-width="0.3" x1="58.666819895761336" x2="56.23545636021788" y1="174.27360380694188" y2="178.64263932499728" /><path d="M 58.180547188652646 175.14741091055294 a86.0,86.0 0 0,1 -31.652253787137756,-30.449443065178592" fill="none" id="id20" stroke="none" /><text fill="#e1ed5e" style="font-size:6.75px; font-family:Arial;" text-anchor="middle"><textPath startOffset="22.20632615414155" xlink:href="#id20">August</textPath></text><path d="M 88.54995079064634 117.60387380957326 l -13.13138875962504 20.18884866276802 a45.083666271657165,45.083666271657165 0 0,0 -0.6468975867244818,-0.42872844623373896 l 13.476961045089483 -19.959822195442964" fill="#ffe915" stroke="none" /><path d="M 85.44109423537348 115.13401014063109 l -11.263639776956305 11.708574899842093 a37.246855302188315,37.246855302188315 0 0,0 -0.4582250876748692,-0.4484696918864884 l 11.463514817006969 -11.512955105033036" fill="#ff740a" stroke="none" /><line stroke="#e1ed5e" stroke-width="0.3" x1="26.63291911575756" x2="22.317208475507996" y1="142.92168965132927" y2="145.44649492493687" /><path d="M 25.769776987707644 143.4266507060508 a86.0,86.0 0 0,1 -11.730757126820373,-40.83630448921669" fill="none" id="id21" stroke="none" /><text fill="#e1ed5e" style="font-size:6.75px; font-family:Arial;" text-anchor="middle"><textPath startOffset="21.46611528233685" xlink:href="#id21">September</textPath></text><path d="M 80.87730276802145 108.67885076344099 l -12.14466238014437 5.511864309255898 a34.336921402308064,34.336921402308064 0 0,0 -0.23963723592331285,-0.5403187046243931 l 12.237740700798962 -5.301997268138809" fill="#ff4606" stroke="none" /><path d="M 79.58551787078972 104.9243191809786 l -22.644196062280212 5.462163982488452 a44.29366546249389,44.29366546249389 0 0,0 -0.17240662608407453,-0.7427232328695742 l 22.73486325429484 -5.071572092270303" fill="#ffde14" stroke="none" /><path d="M 79.35854240842038 103.8639653848113 l -14.804209340865919 2.771265168112016 a36.06135866514614,36.06135866514614 0 0,0 -0.10896292863743082,-0.6111219700957075 l 14.849718711842538 -2.516024447283095" fill="#ff6109" stroke="none" /><path d="M 79.10278846688536 102.07522291339032 l -9.469628974837178 0.9403929801230256 a30.516207851772705,30.516207851772705 0 0,0 -0.04740969529794133,-0.5231620370265977 l 9.484413266412194 -0.7772495545478617" fill="#ff0701" stroke="none" /><line stroke="#e1ed5e" stroke-width="0.3" x1="15.007084014347285" x2="10.007500721073583" y1="101.09737516637583" y2="101.16192664675087" /><path d="M 14.007167355692545 101.11028546245083 a86.0,86.0 0 0,1 10.666146001902534,-42.60595125391555" fill="none" id="id22" stroke="none" /><text fill="#e1ed5e" style="font-size:6.75px; font-family:Arial;" text-anchor="middle"><textPath startOffset="22.20632615414155" xlink:href="#id22">October</textPath></text><path d="M 79.01574976396665 99.18683210126434 l -20.289413589157636 -0.7862420448333673 a41.30464184232163,41.30464184232163 0 0,0 0.03364635167284626,-0.7102213054369939 l 20.27287362925129 1.1353744568933704" fill="#ffb210" stroke="none" /><path d="M 79.81627453868168 94.20196356495316 l -15.004306760199338 -4.310181360967307 a36.611114140848294,36.611114140848294 0 0,0 0.1792098397071143,-0.6042064895088687 l 14.927891023380518 4.567817237222714" fill="#ff6a09" stroke="none" /><path d="M 79.91906864156998 93.8553929516997 l -13.329939580111814 -4.078856664334317 a34.94002729185334,34.94002729185334 0 0,0 0.18093030309420696,-0.5735985044725226 l 13.257753793249403 4.307705335233255" fill="#ff5007" stroke="none" /><path d="M 80.14247586403 93.16781622104843 l -20.210998209801087 -6.953800140436139 a42.37381072784431,42.37381072784431 0 0,0 0.24323963512332727,-0.6876712034951844 l 20.08830549386795 7.300668970357934" fill="#ffc212" stroke="none" /><path d="M 81.10775173730289 90.83032412892265 l -9.657227745668134 -4.687300685953909 a31.734655814335476,31.734655814335476 0 0,0 0.2427549856639407,-0.48937923798848687 l 9.575112747050781 4.852839512441357" fill="#ff1c02" stroke="none" /><line stroke="#e1ed5e" stroke-width="0.3" x1="26.266209847984243" x2="21.928928074336255" y1="57.711370442889674" y2="55.22380399835377" /><path d="M 25.398753493254645 57.213857153982495 a86.0,86.0 0 0,1 29.58750427330803,-30.492523968695096" fill="none" id="id23" stroke="none" /><text fill="#e1ed5e" style="font-size:6.75px; font-family:Arial;" text-anchor="middle"><textPath startOffset="21.46611528233685" xlink:href="#id23">November</textPath></text><path d="M 85.83668400450813 84.49514656593479 l -12.712994558377163 -13.91715876412324 a39.84960314455293,39.84960314455293 0 0,0 0.5104335902164651,-0.4582723171219237 l 12.471549980564726 14.133930090014442" fill="#ff9c0e" stroke="none" /><path d="M 86.37877921826538 84.01681056812374 l -22.13193428146945 -25.969691247418055 a55.121069422359916,55.121069422359916 0 0,0 0.7274470926266997,-0.6092160198164313 l 21.681629651883643 26.3468084246283" fill="#8fff24" stroke="none" /><path d="M 87.51073957382395 83.11751280151077 l -19.200257832289843 -25.95414748354106 a53.2841706169418,53.2841706169418 0 0,0 0.7420573933870873,-0.5391362545165246 l 18.750655122548974 26.280802972874255" fill="#a6ff21" stroke="none" /><line stroke="#e1ed5e" stroke-width="0.3" x1="56.762969772571076" x2="54.21961505331055" y1="26.818313649435495" y2="22.513508569990535" /><path d="M 56.25429882871897 25.957352633546506 a86.0,86.0 0 0,1 42.265352541879196,-11.944610805530505" fill="none" id="id24" stroke="none" /><text fill="#e1ed5e" style="font-size:6.75px; font-family:Arial;" text-anchor="middle"><textPath startOffset="22.20632615414155" xlink:href="#id24">December</textPath></text><path d="M 90.91171255644093 81.06846463323043 l -5.806364280167424 -12.095060967755874 a34.41657057402285,34.41657057402285 0 0,0 0.5362786563888103,-0.2517900198862573 l 5.597307412479005 12.193215970282138" fill="#ff4706" stroke="none" /><path d="M 91.56875222667455 80.76684994638697 l -5.232120166738711 -11.935380737331828 a34.03182238922345,34.03182238922345 0 0,0 0.5385393967587805,-0.23057446446787308 l 5.025897012189622 12.023674729762488" fill="#ff4106" stroke="none" /><path d="M 92.57280143429618 80.3572730644239 l -4.769954268093412 -12.615107614867705 a34.4867862685814,34.4867862685814 0 0,0 0.5570727347431748,-0.20517458953611203 l 4.552099207577667 12.69534547221014" fill="#ff4806" stroke="none" /><path d="M 99.63851952072746 79.00311137660856 l -0.2578332396253698 -14.976454127528115 a35.97867337962243,35.97867337962243 0 0,0 0.6193137188979019,-0.0053306287028731855 l 3.668716881965655e-15 14.978673379622428" fill="#ff6008" stroke="none" /></svg>