<?xml version="1.0" encoding="utf-8" ?>
<svg baseProfile="full" height="200mm" version="1.1" viewBox="0,0,200,200" width="200mm" xmlns="http://www.w3.org/2000/svg" xmlns:ev="http://www.w3.org/2001/xml-events" xmlns:xlink="http://www.w3.org/1999/xlink"><defs /><rect fill="#1a1a1a" height="200" width="200" x="0" y="0" /><text alignment-baseline="middle" fill="#e1ed5e" style="dominant-baseline: central; font-size:9.0px; font-family:Arial;" text-anchor="middle" x="100.0" y="100.0">2022</text><line stroke="#e1ed5e" stroke-width="0.3" x1="100.0" x2="100.0" y1="15.0" y2="10.0" /><path d="M 100.0 14.0 a86.0,86.0 0 0,1 42.46469731375804,11.215312516191453" fill="none" id="id25" stroke="none" /><text fill="#e1ed5e" style="font-size:6.75px; font-family:Arial;" text-anchor="middle"><textPath startOffset="22.20632615414155" xlink:href="#id25">January</textPath></text><path d="M 100.0 79.0 l 0.0 -53.66893928616352 a74.66893928616352,74.66893928616352 0 0,0 1.2853030457111292,0.011063009099089121 l -0.9238225664386008 53.66098765367299" fill="#5fff29" stroke="none" /><line stroke="#e1ed5e" stroke-width="0.3" x1="143.23703022742887" x2="145.7803849466894" y1="26.81831364943548" y2="22.513508569990506" /><path d="M 143.74570117128098 25.957352633546492 a86.0,86.0 0 0,1 28.547481713284135,27.462654790039103" fill="none" id="id26" stroke="none" /><text fill="#e1ed5e" style="font-size:6.75px; font-family:Arial;" text-anchor="middle"><textPath startOffset="19.985693538727396" xlink:href="#id26">February</textPath></text><path d="M 113.89432698308785 84.25364557470407 l 28.309967549052523 -32.083510294425125 a63.78791763384717,63.78791763384717 0 0,0 0.8170594746493753,0.7335640636722145 l -28.85803801129789 31.59144722198361" fill="#ff0000" stroke="none" /><path d="M 116.82858285166822 87.43820079747576 l 38.31412833703347 -28.599816813561826 a68.81131615000747,68.81131615000747 0 0,0 0.700359568733405,0.9552896646724505 l -38.8007505182805 27.93606470521788" fill="#ffd213" stroke="none" /><path d="M 117.65298651832404 88.62581576622439 l 37.47892261876114 -24.148444814519742 a65.58494171380053,65.58494171380053 0 0,0 0.6032952781392257,0.9542682483418302 l -37.88904549314632 23.499728918463706" fill="#ff4f07" stroke="none" /><line stroke="#e1ed5e" stroke-width="0.3" x1="172.23445277983987" x2="176.4835382374775" y1="55.19839476539836" y2="52.563006222186495" /><path d="M 173.08426987136738 54.67131705675599 a86.0,86.0 0 0,1 12.851231095245387,41.99856678651699" fill="none" id="id27" stroke="none" /><text fill="#e1ed5e" style="font-size:6.75px; font-family:Arial;" text-anchor="middle"><textPath startOffset="22.20632615414155" xlink:href="#id27">March</textPath></text><path d="M 117.84615892207809 88.93136811851018 l 36.36190371611542 -22.552557584026722 a63.78791763384717,63.78791763384717 0 0,0 0.570701999219975,0.9380840307306809 l -36.74472151362162 21.92330578008896" fill="#ff0000" stroke="none" /><path d="M 118.3937258080291 89.86733742301442 l 37.47758213588182 -20.64550151217262 a63.78791763384717,63.78791763384717 0 0,0 0.521517563116725,0.9662928396642656 l -37.82740779821701 19.997327689175894" fill="#ff0000" stroke="none" /><path d="M 118.56541770881063 90.18545643968196 l 37.82740779821701 -19.997327689175894 a63.78791763384717,63.78791763384717 0 0,0 0.5048071518621368,0.9751267405083478 l -38.16602438323926 19.3432282264072" fill="#ff0000" stroke="none" /><path d="M 118.89224826269711 90.83032412892265 l 38.49333155154649 -18.683396947653957 a63.78791763384717,63.78791763384717 0 0,0 0.47094256957261693,0.9919251568490148 l -38.809232314960866 18.018029375164403" fill="#ff0000" stroke="none" /><path d="M 119.196687751892 91.48605970444005 l 39.11363306526848 -17.347322671710064 a63.78791763384717,63.78791763384717 0 0,0 0.43651982684636786,1.0075479449612588 l -39.40644360195753 16.671475582162202" fill="#ff0000" stroke="none" /><path d="M 119.47837535516314 92.15188598940014 l 52.916769545262134 -21.320917832799264 a78.05055684512956,78.05055684512956 0 0,0 0.49137081191672033,1.2504851199515232 l -53.275933907060555 20.406883707951955" fill="#36ff72" stroke="none" /><line stroke="#e1ed5e" stroke-width="0.3" x1="184.98032266829074" x2="189.97916517819016" y1="98.17113171792111" y2="98.06355123074" /><path d="M 185.9800911702706 98.14961562048488 a86.0,86.0 0 0,1 -9.607161424134198,41.387399972396054" fill="none" id="id28" stroke="none" /><text fill="#e1ed5e" style="font-size:6.75px; font-family:Arial;" text-anchor="middle"><textPath startOffset="21.466115282336823" xlink:href="#id28">April</textPath></text><path d="M 120.99980553446 99.90962569577887 l 57.05002854192268 -0.2455192562050768 a78.05055684512956,78.05055684512956 0 0,0 -0.005782069659036534,1.343549358116136 l -57.045802174974135 -0.7365395801147437" fill="#36ff72" stroke="none" /><path d="M 120.64145759157962 103.86396538481128 l 51.26905695690877 9.597280643312038 a73.15960119668523,73.15960119668523 0 0,0 -0.24236754089176546,1.2358268694146493 l -51.09625948304134 -10.478371239794633" fill="#90ff24" stroke="none" /><path d="M 120.32669344350535 105.2749913415812 l 60.980080330516046 15.82497402474362 a84.0,84.0 0 0,0 -0.3752476946328911,1.396436267297807 l -60.69864455954138 -16.872301225216972" fill="#4dd2ff" stroke="none" /><line stroke="#e1ed5e" stroke-width="0.3" x1="174.80103733775053" x2="179.2010983576182" y1="140.37084112569926" y2="142.7455964860345" /><path d="M 175.68104954172406 140.8457921977663 a86.0,86.0 0 0,1 -30.038265399797805,32.042727171017184" fill="none" id="id29" stroke="none" /><text fill="#e1ed5e" style="font-size:6.75px; font-family:Arial;" text-anchor="middle"><textPath startOffset="22.206326154141568" xlink:href="#id29">May</textPath></text><line stroke="#e1ed5e" stroke-width="0.3" x1="143.8653032363475" x2="146.44561519142675" y1="172.8068346515853" y2="177.08958963109032" /><path d="M 144.38136562736335 173.6633856474863 a86.0,86.0 0 0,1 -40.68145358897372,12.25698825130547" fill="none" id="id30" stroke="none" /><text fill="#e1ed5e" style="font-size:6.75px; font-family:Arial;" text-anchor="middle"><textPath startOffset="21.466115282336833" xlink:href="#id30">June</textPath></text><line stroke="#e1ed5e" stroke-width="0.3" x1="102.19456741930631" x2="102.32365962044197" y1="184.97166512339345" y2="189.96999836594603" /><path d="M 102.22038585953345 185.97133177190398 a86.0,86.0 0 0,1 -42.740103519485714,-10.115201625700543" fill="none" id="id31" stroke="none" /><text fill="#e1ed5e" style="font-size:6.75px; font-family:Arial;" text-anchor="middle"><textPath startOffset="22.20632615414155" xlink:href="#id31">July</textPath></text><line stroke="#e1ed5e" stroke-width="0.3" x1="58.666819895761336" x2="56.23545636021788" y1="174.27360380694188" y2="178.64263932499728" /><path d="M 58.180547188652646 175.14741091055294 a86.0,86.0 0 0,1 -31.652253787137756,-30.449443065178592" fill="none" id="id32" stroke="none" /><text fill="#e1ed5e" style="font-size:6.75px; font-family:Arial;" text-anchor="middle"><textPath startOffset="22.20632615414155" xlink:href="#id32">August</textPath></text><line stroke="#e1ed5e" stroke-width="0.3" x1="26.63291911575756" x2="22.317208475507996" y1="142.92168965132927" y2="145.44649492493687" /><path d="M 25.769776987707644 143.4266507060508 a86.0,86.0 0 0,1 -11.730757126820373,-40.83630448921669" fill="none" id="id33" stroke="none" /><text fill="#e1ed5e" style="font-size:6.75px; font-family:Arial;" text-anchor="middle"><textPath startOffset="21.46611528233685" xlink:href="#id33">September</textPath></text><line stroke="#e1ed5e" stroke-width="0.3" x1="15.007084014347285" x2="10.007500721073583" y1="101.09737516637583" y2="101.16192664675087" /><path d="M 14.007167355692545 101.11028546245083 a86.0,86.0 0 0,1 10.666146001902534,-42.60595125391555" fill="none" id="id34" stroke="none" /><text fill="#e1ed5e" style="font-size:6.75px; font-family:Arial;" text-anchor="middle"><textPath startOffset="22.20632615414155" xlink:href="#id34">October</textPath></text><line stroke="#e1ed5e" stroke-width="0.3" x1="26.266209847984243" x2="21.928928074336255" y1="57.711370442889674" y2="55.22380399835377" /><path d="M 25.398753493254645 57.213857153982495 a86.0,86.0 0 0,1 29.58750427330803,-30.492523968695096" fill="none" id="id35" stroke="none" /><text fill="#e1ed5e" style="font-size:6.75px; font-family:Arial;" text-anchor="middle"><textPath startOffset="21.46611528233685" xlink:href="#id35">November</textPath></text><line stroke="#e1ed5e" stroke-width="0.3" x1="56.762969772571076" x2="54.21961505331055" y1="26.818313649435495" y2="22.513508569990535" /><path d="M 56.25429882871897 25.957352633546506 a86.0,86.0 0 0,1 42.265352541879196,-11.944610805530505" fill="none" id="id36" stroke="none" /><text fill="#e1ed5e" style="font-size:6.75px; font-family:Arial;" text-anchor="middle"><textPath startOffset="22.20632615414155" xlink:href="#id36">December</textPath></text></svg>