<?xml version="1.0" encoding="utf-8" ?>
<svg baseProfile="full" height="200mm" version="1.1" viewBox="0,0,200,200" width="200mm" xmlns="http://www.w3.org/2000/svg" xmlns:ev="http://www.w3.org/2001/xml-events" xmlns:xlink="http://www.w3.org/1999/xlink"><defs /><rect fill="#1a1a1a" height="200" width="200" x="0" y="0" /><text alignment-baseline="middle" fill="#e1ed5e" style="dominant-baseline: central; font-size:9.0px; font-family:Arial;" text-anchor="middle" x="100.0" y="100.0">2022</text><line stroke="#e1ed5e" stroke-width="0.3" x1="100.0" x2="100.0" y1="15.0" y2="10.0" /><path d="M 100.0 14.0 a86.0,86.0 0 0,1 42.46469731375804,11.215312516191453" fill="none" id="id25" stroke="none" /><text fill="#e1ed5e" style="font-size:6.75px; font-family:Arial;" text-anchor="middle"><textPath startOffset="22.20632615414155" xlink:href="#id25">January</textPath></text><path d="M 100.0 79.0 l 0.0 -23.706293940000002 a44.70629394,44.70629394 0 0,0 0.7695453599966539,0.006623719867632053 l -0.4080648807241255 23.70278159674093" fill="#ff6008" stroke="none" /><line stroke="#e1ed5e" stroke-width="0.3" x1="143.23703022742887" x2="145.7803849466894" y1="26.81831364943548" y2="22.513508569990506" /><path d="M 143.74570117128098 25.957352633546492 a86.0,86.0 0 0,1 28.547481713284135,27.462654790039103" fill="none" id="id26" stroke="none" /><text fill="#e1ed5e" style="font-size:6.75px; font-family:Arial;" text-anchor="middle"><textPath startOffset="19.985693538727396" xlink:href="#id26">February</textPath></text><path d="M 113.89432698308785 84.25364557470407 l 12.50489428477906 -14.171718982766345 a39.9,39.9 0 0,0 0.5110791235676189,0.4588518833383349 l -12.746984395942668 13.954368090658713" fill="#ff0000" stroke="none" /><path d="M 116.82858285166822 87.43820079747576 l 16.92386696091767 -12.632924612080906 a42.118902840000004,42.118902840000004 0 0,0 0.4286849646101906,0.5847258099624469 l -17.138814538041487 12.339736358446967" fill="#ff2d04" stroke="none" /><path d="M 117.65298651832404 88.62581576622439 l 16.554945336583692 -10.666693595609468 a40.693769759999995,40.693769759999995 0 0,0 0.3743292058263256,0.5920989082640239 l -16.736102138655976 10.380147039631238" fill="#ff1001" stroke="none" /><line stroke="#e1ed5e" stroke-width="0.3" x1="172.23445277983987" x2="176.4835382374775" y1="55.19839476539836" y2="52.563006222186495" /><path d="M 173.08426987136738 54.67131705675599 a86.0,86.0 0 0,1 12.851231095245387,41.99856678651699" fill="none" id="id27" stroke="none" /><text fill="#e1ed5e" style="font-size:6.75px; font-family:Arial;" text-anchor="middle"><textPath startOffset="22.20632615414155" xlink:href="#id27">March</textPath></text><path d="M 117.84615892207809 88.93136811851018 l 16.061543029870275 -9.961768693340835 a39.9,39.9 0 0,0 0.3569799832561745,0.5867812309065452 l -16.230638811412675 9.683819689227208" fill="#ff0000" stroke="none" /><path d="M 118.3937258080291 89.86733742301442 l 16.554353227226187 -9.119396319287029 a39.9,39.9 0 0,0 0.3262146114849168,0.6044261316683284 l -16.70887593792957 8.83308920428624" fill="#ff0000" stroke="none" /><path d="M 118.56541770881063 90.18545643968196 l 16.70887593792957 -8.83308920428624 a39.9,39.9 0 0,0 0.3157620769957789,0.6099518277053448 l -16.858447448085467 8.544164654320552" fill="#ff0000" stroke="none" /><path d="M 118.89224826269711 90.83032412892265 l 17.003023436427398 -8.252708283969607 a39.9,39.9 0 0,0 0.29457943170066325,0.6204594102829732 l -17.14256106196982 7.958806458046093" fill="#ff0000" stroke="none" /><path d="M 119.196687751892 91.48605970444005 l 17.277018976702806 -7.662546266003949 a39.9,39.9 0 0,0 0.27304765129890657,0.6302316252854547 l -17.406357337844394 7.364015496131892" fill="#ff0000" stroke="none" /><path d="M 119.47837535516314 92.15188598940014 l 23.37405042619576 -9.417736812719822 a46.2,46.2 0 0,0 0.29085419026025905,0.7401921892292744 l -23.532698166337717 9.013995618594763" fill="#ff7c0b" stroke="none" /><line stroke="#e1ed5e" stroke-width="0.3" x1="184.98032266829074" x2="189.97916517819016" y1="98.17113171792111" y2="98.06355123074" /><path d="M 185.9800911702706 98.14961562048488 a86.0,86.0 0 0,1 -9.607161424134198,41.387399972396054" fill="none" id="id28" stroke="none" /><text fill="#e1ed5e" style="font-size:6.75px; font-family:Arial;" text-anchor="middle"><textPath startOffset="21.466115282336823" xlink:href="#id28">April</textPath></text><path d="M 120.99980553446 99.90962569577887 l 25.199766641351992 -0.10844916506535608 a46.2,46.2 0 0,0 -0.003422545963093371,0.7952791479518937 l -25.197899798099396 -0.3253394610902223" fill="#ff7c0b" stroke="none" /><path d="M 120.64145759157962 103.86396538481128 l 22.646233564754382 4.239248231494 a44.03959896,44.03959896 0 0,0 -0.14589704054152727,0.7439258664996575 l -22.569906591237192 -4.628437825061602" fill="#ff5307" stroke="none" /><path d="M 120.32669344350535 105.2749913415812 l 26.935723493471787 6.990104347379109 a48.827949239999995,48.827949239999995 0 0,0 -0.21812589745192648,0.8117276092441951 l -26.811409519678083 -7.452722889798852" fill="#ffad10" stroke="none" /><path d="M 120.23288151984713 105.62410040840565 l 60.69864455954138 16.872301225216972 a84.0,84.0 0 0,0 -0.3992294524556024,1.389770097981672 l -60.399222470199675 -17.914628798703227" fill="#4dd2ff" stroke="none" /><path d="M 120.02730092923936 106.31721596034902 l 51.36622970724277 16.202461194149155 a74.8610184,74.8610184 0 0,0 -0.3982169453378722,1.2255857368905958 l -51.079720510888656 -17.084245831017544" fill="#3dffad" stroke="none" /><path d="M 119.67450827220406 107.3425965602758 l 37.05851029135813 13.83036802900428 a60.55518000000001,60.55518000000001 0 0,0 -0.3728633892497558,0.9734286511512832 l -36.81495262251487 -14.466220246988707" fill="#8cff24" stroke="none" /><path d="M 118.64920377521936 109.65438752849418 l 20.74089847064796 10.737223633690089 a44.35536,44.35536 0 0,0 -0.35684413422770983,0.6750146217356705 l -20.553001828195356 -11.092653270511894" fill="#ff5908" stroke="none" /><line stroke="#e1ed5e" stroke-width="0.3" x1="174.80103733775053" x2="179.2010983576182" y1="140.37084112569926" y2="142.7455964860345" /><path d="M 175.68104954172406 140.8457921977663 a86.0,86.0 0 0,1 -30.038265399797805,32.042727171017184" fill="none" id="id29" stroke="none" /><text fill="#e1ed5e" style="font-size:6.75px; font-family:Arial;" text-anchor="middle"><textPath startOffset="22.206326154141568" xlink:href="#id29">May</textPath></text><path d="M 118.30583269289576 110.29060199501025 l 34.414599345990176 19.346125938579362 a60.479580000000006,60.479580000000006 0 0,0 -0.51795865412107,0.9031045723249698 l -34.076488695716726 -19.935650356762647" fill="#8eff24" stroke="none" /><path d="M 117.94076556474637 110.91462005526583 l 33.357983045155514 20.293989653557958 a60.04614,60.04614 0 0,0 -0.544805377211807,0.8783997378740188 l -33.00371302827574 -20.86518572279725" fill="#94ff23" stroke="none" /><path d="M 117.35343817320211 111.8261652097733 l 32.58767447669277 22.20811912412907 a60.435480000000005,60.435480000000005 0 0,0 -0.5932435724962315,0.8546116123772202 l -32.2005699970344 -22.76577199869331" fill="#8eff24" stroke="none" /><path d="M 117.14729908036423 112.12312394758627 l 36.507285634058675 25.810615809369075 a65.70984,65.70984 0 0,0 -0.6609164784650438,0.9179551831991924 l -36.05758936321803 -26.4352045980194" fill="#41ff2d" stroke="none" /><line stroke="#e1ed5e" stroke-width="0.3" x1="143.8653032363475" x2="146.44561519142675" y1="172.8068346515853" y2="177.08958963109032" /><path d="M 144.38136562736335 173.6633856474863 a86.0,86.0 0 0,1 -40.68145358897372,12.25698825130547" fill="none" id="id30" stroke="none" /><text fill="#e1ed5e" style="font-size:6.75px; font-family:Arial;" text-anchor="middle"><textPath startOffset="21.466115282336833" xlink:href="#id30">June</textPath></text><line stroke="#e1ed5e" stroke-width="0.3" x1="102.19456741930631" x2="102.32365962044197" y1="184.97166512339345" y2="189.96999836594603" /><path d="M 102.22038585953345 185.97133177190398 a86.0,86.0 0 0,1 -42.740103519485714,-10.115201625700543" fill="none" id="id31" stroke="none" /><text fill="#e1ed5e" style="font-size:6.75px; font-family:Arial;" text-anchor="middle"><textPath startOffset="22.20632615414155" xlink:href="#id31">July</textPath></text><line stroke="#e1ed5e" stroke-width="0.3" x1="58.666819895761336" x2="56.23545636021788" y1="174.27360380694188" y2="178.64263932499728" /><path d="M 58.180547188652646 175.14741091055294 a86.0,86.0 0 0,1 -31.652253787137756,-30.449443065178592" fill="none" id="id32" stroke="none" /><text fill="#e1ed5e" style="font-size:6.75px; font-family:Arial;" text-anchor="middle"><textPath startOffset="22.20632615414155" xlink:href="#id32">August</textPath></text><line stroke="#e1ed5e" stroke-width="0.3" x1="26.63291911575756" x2="22.317208475507996" y1="142.92168965132927" y2="145.44649492493687" /><path d="M 25.769776987707644 143.4266507060508 a86.0,86.0 0 0,1 -11.730757126820373,-40.83630448921669" fill="none" id="id33" stroke="none" /><text fill="#e1ed5e" style="font-size:6.75px; font-family:Arial;" text-anchor="middle"><textPath startOffset="21.46611528233685" xlink:href="#id33">September</textPath></text><line stroke="#e1ed5e" stroke-width="0.3" x1="15.007084014347285" x2="10.007500721073583" y1="101.09737516637583" y2="101.16192664675087" /><path d="M 14.007167355692545 101.11028546245083 a86.0,86.0 0 0,1 10.666146001902534,-42.60595125391555" fill="none" id="id34" stroke="none" /><text fill="#e1ed5e" style="font-size:6.75px; font-family:Arial;" text-anchor="middle"><textPath startOffset="22.20632615414155" xlink:href="#id34">October</textPath></text><line stroke="#e1ed5e" stroke-width="0.3" x1="26.266209847984243" x2="21.928928074336255" y1="57.711370442889674" y2="55.22380399835377" /><path d="M 25.398753493254645 57.213857153982495 a86.0,86.0 0 0,1 29.58750427330803,-30.492523968695096" fill="none" id="id35" stroke="none" /><text fill="#e1ed5e" style="font-size:6.75px; font-family:Arial;" text-anchor="middle"><textPath startOffset="21.46611528233685" xlink:href="#id35">November</textPath></text><line stroke="#e1ed5e" stroke-width="0.3" x1="56.762969772571076" x2="54.21961505331055" y1="26.818313649435495" y2="22.513508569990535" /><path d="M 56.25429882871897 25.957352633546506 a86.0,86.0 0 0,1 42.265352541879196,-11.944610805530505" fill="none" id="id36" stroke="none" /><text fill="#e1ed5e" style="font-size:6.75px; font-family:Arial;" text-anchor="middle"><textPath startOffset="22.20632615414155" xlink:href="#id36">December</textPath></text></svg>